<svg width="1100" height="1100" viewBox="0 0 1100 1100" fill="none" xmlns="http://www.w3.org/2000/svg">
    <path
        d="M550.001 617.143C587.091 617.143 617.157 587.076 617.157 549.987C617.157 512.898 587.091 482.831 550.001 482.831C512.912 482.831 482.845 512.898 482.845 549.987C482.845 587.076 512.912 617.143 550.001 617.143Z"
        fill="#03ADB7" />
    <path d="M552.724 405.838C859.642 7.87752 557.42 0 557.42 0C557.42 0 255.097 0.878134 552.724 405.838Z"
        fill="#E7BE0B" />
    <path
        d="M449.985 446.116C385.604 -52.2918 166.344 155.832 166.344 155.832C166.344 155.832 -46.8065 370.23 449.985 446.116Z"
        fill="#03ADB7" />
    <path d="M405.812 547.277C7.8775 240.334 0 542.568 0 542.568C0 542.568 0.878085 844.904 405.812 547.277Z"
        fill="#E7BE0B" />
    <path
        d="M446.116 650.015C-52.3172 714.397 155.832 933.656 155.832 933.656C155.832 933.656 370.23 1146.85 446.116 650.015Z"
        fill="#03ADB7" />
    <path d="M547.263 694.188C240.333 1092.15 542.567 1100 542.567 1100C542.567 1100 844.877 1099.12 547.263 694.188Z"
        fill="#E7BE0B" />
    <path
        d="M650.015 653.896C714.371 1152.3 933.643 944.18 933.643 944.18C933.643 944.18 1146.81 729.783 650.015 653.896Z"
        fill="#03ADB7" />
    <path d="M694.187 552.749C1092.15 859.666 1100 557.445 1100 557.445C1100 557.445 1099.11 255.121 694.187 552.749Z"
        fill="#E7BE0B" />
    <path
        d="M653.872 449.998C1152.31 385.59 944.168 166.344 944.168 166.344C944.168 166.344 729.771 -46.8068 653.872 449.998Z"
        fill="#03ADB7" />
</svg>